<svg id="Layer_1" data-name="Layer 1" xmlns="http://www.w3.org/2000/svg" viewBox="0 0 717.58 492.62"><defs><style>.cls-1{fill:#b47f00;}</style></defs><path class="cls-1" d="M181.64,537.66l-1.3-2.51.54-.09a10.62,10.62,0,0,0,3.6-1c2.12-1.33,3.84-4.29,3.84-5.52a1.69,1.69,0,0,0-1.59-1.73h-.06l-.28.06-.06,0a22.43,22.43,0,0,1-3.55,1.43c-1.36.06-2.22.08-2.81.08s-.91,0-1.25,0-.65,0-1.22,0a5.16,5.16,0,0,1-2-.58,2.25,2.25,0,0,0-1.07-.31h0c-1.41.17-3.64,4.77-3.64,5.39,0,.93.78,1.83,2.19,3.37.44.48.91,1,1.32,1.51h-4.34v6.41h19.14v-6.41Z" transform="translate(-62.15 -51.45)"/><polygon class="cls-1" points="221.44 454.97 215.19 461.69 221.29 468.02 227.55 461.41 221.44 454.97"/><path class="cls-1" d="M380,543s-.67-4.42-.95-5.54l-.08-.19-.1-.11c-.05-.07-.18-.38-.25-.53-.29-.7-.66-1.57-1.53-1.57a1.94,1.94,0,0,0-1.73,1.21c-.19.35-.3.54-.54.65a11.5,11.5,0,0,1-4.25.72,8.73,8.73,0,0,1-2.45-.28c-2.29-.89-4.31-7.45-4.15-10.62.07-1.3.93-2.87,1.89-2.87l.82.13a28.36,28.36,0,0,0,2.93.41c.38,0,.7,0,1,0s.61,0,.93,0a7,7,0,0,0,1.2-.1c4.52-.84,7.33-3.89,7.33-7.95v-.18a3.17,3.17,0,0,0-.58-2.36,1.52,1.52,0,0,0-1.1-.46c-1.25,0-1.59,1.23-1.83,2.08-.32,1.18-.52,1.62-1.33,1.62l-.36,0-1.66-.25c-1.48-.22-2.88-.43-4.67-.64a8.18,8.18,0,0,0-1-.06,8,8,0,0,0-6,2.76,15.71,15.71,0,0,0-3.09,16.43,20.26,20.26,0,0,1,.69,2.3H307.62c-.33-2.14-1.78-8.28-8-10.83a14.8,14.8,0,0,0-3.59-1.14H270.16V516.4h-6v21.26H202.86V478.88h-6.34v65.19H380.15ZM270.16,531.38h21.17c5.73,0,10.69,2.77,11.51,6.28H270.16Z" transform="translate(-62.15 -51.45)"/><path class="cls-1" d="M412,470.48l-.54-1a5.75,5.75,0,0,0,2.22-.72,6.14,6.14,0,0,0,2.69-3.74,1.48,1.48,0,0,0-1.34-1.56H415l-.28.07,0,0a20.66,20.66,0,0,1-2.13.9c-.91,0-1.48,0-1.87,0l-.8,0-.79,0a2.76,2.76,0,0,1-1.15-.39,1.51,1.51,0,0,0-.75-.23H407c-1,.21-2.48,3.29-2.48,3.77,0,.76.57,1.43,1.58,2.57l.23.25H403.9v5.61h12.91v-5.61Z" transform="translate(-62.15 -51.45)"/><polygon class="cls-1" points="343.49 434.02 343.49 483.96 350 483.96 350 434.15 343.49 434.02"/><polygon class="cls-1" points="356.96 427.88 356.96 486.21 319.23 486.21 319.23 492.62 363.3 492.62 363.3 427.88 356.96 427.88"/><polygon class="cls-1" points="371.16 427.17 371.16 492.62 377.59 492.62 377.59 430 379.63 427.17 371.16 427.17"/><polygon class="cls-1" points="419.29 444.7 415.25 448.94 411.38 444.87 406.05 450.6 411.15 456.08 415.25 451.58 419.11 455.81 424.37 450.16 419.29 444.7"/><path class="cls-1" d="M544,478.88v58.78H485.52V510H479.1v6.45a6.37,6.37,0,0,1-1.87,1.28l-.09,0-.05,0c-1,.81-4.51,3.5-5.4,4.3a26,26,0,0,0-4.44,5.24c-1.12,2-1.12,4.35-1.12,7.07v9.68h84.28V478.88Zm-71.51,58.78v-6c0-2.8,4.19-5.65,6.63-6.79v12.83Z" transform="translate(-62.15 -51.45)"/><path class="cls-1" d="M667,538.54c0-.35-.57-8.63-8.05-11.71a14.94,14.94,0,0,0-3.59-1.14H629.42V516.4h-6v21.26H562.12V478.88h-6.34v65.19H667Zm-37.56-7.16H650.6c5.72,0,10.69,2.77,11.5,6.28H629.42Z" transform="translate(-62.15 -51.45)"/><polygon class="cls-1" points="46.34 377.08 46.34 328.95 29.84 377.08 23.75 377.08 6.94 328.86 6.94 377.08 0 377.08 0 314.69 8.85 314.69 26.77 366.09 44.35 314.69 53.2 314.69 53.2 377.08 46.34 377.08"/><polygon class="cls-1" points="26.77 367.82 8.45 315.26 0.57 315.26 0.57 376.52 6.37 376.52 6.37 325.51 24.15 376.52 29.44 376.52 46.91 325.55 46.91 376.52 52.63 376.52 52.63 315.26 44.76 315.26 26.77 367.82"/><polygon class="cls-1" points="63.89 377.08 63.89 314.69 102.6 314.69 102.6 321.52 70.91 321.52 70.91 341.74 99.89 341.74 99.89 348.4 70.91 348.4 70.91 370.26 103.56 370.26 103.56 377.08 63.89 377.08"/><polygon class="cls-1" points="70.34 347.83 99.32 347.83 99.32 342.3 70.34 342.3 70.34 320.95 102.04 320.95 102.04 315.26 64.46 315.26 64.46 376.52 102.99 376.52 102.99 370.83 70.34 370.83 70.34 347.83"/><polygon class="cls-1" points="157.53 377.08 157.53 328.95 141.03 377.08 134.93 377.08 118.13 328.86 118.13 377.08 111.19 377.08 111.19 314.69 120.04 314.69 137.96 366.09 155.54 314.69 164.39 314.69 164.39 377.08 157.53 377.08"/><polygon class="cls-1" points="117.56 325.51 135.34 376.52 140.63 376.52 158.1 325.55 158.1 376.52 163.82 376.52 163.82 315.26 155.94 315.26 137.96 367.82 119.64 315.26 111.76 315.26 111.76 376.52 117.56 376.52 117.56 325.51"/><path class="cls-1" d="M237.23,428.53V366.14h19.55a42.2,42.2,0,0,1,7.89.59,15.46,15.46,0,0,1,5.22,2,14.28,14.28,0,0,1,5.34,5.71,17.34,17.34,0,0,1,1.9,8.1,15.24,15.24,0,0,1-2.35,8.43,14,14,0,0,1-4.53,4.42,13.94,13.94,0,0,1,6.39,5,18.5,18.5,0,0,1,3.09,10.83,18.71,18.71,0,0,1-2.48,9.72,14.64,14.64,0,0,1-6.95,6.09,18.19,18.19,0,0,1-5.41,1.12c-2.3.21-6.05.31-11.17.31Zm21.27-6.82c5.37,0,9.1-.82,11.1-2.43s2.92-4.33,2.92-8.24-1.12-6.69-3.34-8.58-5.72-2.9-10.26-2.9H244.25v22.15ZM255.37,393c5.58,0,9.47-.78,11.57-2.33s3-4.09,3-7.76-1-6.23-2.9-7.69-5.77-2.27-11.2-2.27H244.25v20Z" transform="translate(-62.15 -51.45)"/><path class="cls-1" d="M264.84,427.65a17.66,17.66,0,0,0,5.23-1.07,14,14,0,0,0,6.69-5.86,18.11,18.11,0,0,0,2.4-9.43,17.87,17.87,0,0,0-3-10.5,13.35,13.35,0,0,0-7.3-5.25,13.83,13.83,0,0,0,5.44-4.85,14.82,14.82,0,0,0,2.25-8.13,16.68,16.68,0,0,0-1.83-7.83,13.78,13.78,0,0,0-5.14-5.5,14.71,14.71,0,0,0-5-1.94,41,41,0,0,0-7.78-.58h-19V428h15.92C258.81,428,262.55,427.86,264.84,427.65ZM243.68,372.4h12.18c5.56,0,9.44.8,11.54,2.39s3.13,4.3,3.13,8.14-1.1,6.63-3.26,8.22-6.2,2.44-11.9,2.44H243.68Zm0,26.59h15.24c4.68,0,8.26,1,10.63,3s3.54,5,3.54,9-1,7-3.13,8.68-6,2.55-11.46,2.55H243.68Z" transform="translate(-62.15 -51.45)"/><polygon class="cls-1" points="225.21 377.08 225.21 314.69 263.92 314.69 263.92 321.52 232.22 321.52 232.22 341.74 261.2 341.74 261.2 348.4 232.22 348.4 232.22 370.26 264.87 370.26 264.87 377.08 225.21 377.08"/><polygon class="cls-1" points="264.31 370.83 231.66 370.83 231.66 347.83 260.64 347.83 260.64 342.3 231.66 342.3 231.66 320.95 263.35 320.95 263.35 315.26 225.77 315.26 225.77 376.52 264.31 376.52 264.31 370.83"/><path class="cls-1" d="M370.07,428.53l-.26-.52a11.59,11.59,0,0,1-.84-2.69,30.39,30.39,0,0,1-.47-3.86l-.65-8c-.46-6.6-1.61-9.09-2.5-10-1.25-1.3-4-2-8.09-2H341.75v27.08h-7V366.14h19.7a56.3,56.3,0,0,1,9.65.59,16.59,16.59,0,0,1,5.4,2,14.34,14.34,0,0,1,5.47,5.94,20.53,20.53,0,0,1-.57,18.39,13.68,13.68,0,0,1-5.3,5,9,9,0,0,1,3.47,3.31c1.08,1.83,1.81,5.32,2.23,10.67l.73,9.08a13.51,13.51,0,0,0,.57,3.32,3.87,3.87,0,0,0,.92,1.66l.31.27v2.16Zm-14.3-33.91c5,0,8.62-.89,10.75-2.66s3.12-4.62,3.12-8.62a11.82,11.82,0,0,0-1-5,8.54,8.54,0,0,0-2.81-3.45,9.1,9.1,0,0,0-3.42-1.49,35,35,0,0,0-6.94-.47H341.75v21.65Z" transform="translate(-62.15 -51.45)"/><path class="cls-1" d="M341.18,400.88h16.08c4.27,0,7.12.73,8.5,2.17s2.28,4.94,2.66,10.36l.65,8a29.32,29.32,0,0,0,.46,3.79,11.2,11.2,0,0,0,.79,2.55l.1.2h6.32v-1.34l-.12-.1a4.4,4.4,0,0,1-1.08-1.9,14.65,14.65,0,0,1-.6-3.45l-.72-9.09c-.42-5.25-1.12-8.66-2.15-10.43a9,9,0,0,0-4.28-3.6,13.17,13.17,0,0,0,6.11-5.27,20,20,0,0,0,.55-17.84,14,14,0,0,0-5.26-5.72,16.26,16.26,0,0,0-5.22-1.93,55,55,0,0,0-9.54-.58H335.3V428h5.88Zm0-28.48h14.29a36.34,36.34,0,0,1,7.07.48,9.79,9.79,0,0,1,3.62,1.59,9,9,0,0,1,3,3.68,12.25,12.25,0,0,1,1.06,5.19c0,4.17-1.12,7.22-3.33,9.05s-6,2.8-11.11,2.8H341.18Z" transform="translate(-62.15 -51.45)"/><path class="cls-1" d="M404.56,430.22c-6.91,0-12.34-1.79-16.12-5.33s-5.72-8.66-5.72-15.2v-1.34h7v.91c0,4.49,1.37,8,3.92,10.44s6.26,3.69,11,3.69c4.14,0,7.42-1,9.74-3a10.05,10.05,0,0,0,3.44-8.07c0-3.19-.8-5.63-2.38-7.25s-5-3.24-10.09-4.64L400,399c-5.91-1.63-10.08-3.76-12.4-6.34s-3.54-6.3-3.54-10.95a15.94,15.94,0,0,1,5.32-12.49c3.5-3.1,8.21-4.67,14-4.67,6.13,0,11,1.72,14.5,5.11s5.31,8.18,5.39,14.21v.94h-7.09v-.91c-.07-4-1.24-7.16-3.47-9.31s-5.45-3.26-9.56-3.26c-3.88,0-6.9.93-9,2.77s-3.09,4.42-3.09,7.77a8.49,8.49,0,0,0,2,5.93c1.36,1.46,3.68,2.66,6.91,3.54l6.57,1.76c6.64,1.79,11.39,4.12,14.11,6.91s4.21,6.8,4.21,11.74c0,5.67-1.85,10.22-5.49,13.51S410.76,430.22,404.56,430.22Z" transform="translate(-62.15 -51.45)"/><path class="cls-1" d="M404.56,429.65c6.06,0,10.9-1.61,14.41-4.78s5.3-7.58,5.3-13.09c0-4.79-1.36-8.6-4-11.35s-7.32-5-13.86-6.75l-6.57-1.77c-3.33-.91-5.75-2.15-7.17-3.7a9,9,0,0,1-2.13-6.31c0-3.52,1.11-6.27,3.29-8.19s5.34-2.91,9.36-2.91c4.26,0,7.62,1.14,10,3.41s3.56,5.53,3.63,9.71v.36h5.95v-.37c-.08-5.88-1.83-10.53-5.21-13.81s-8.13-5-14.11-5c-5.65,0-10.23,1.53-13.62,4.53a15.4,15.4,0,0,0-5.14,12.07c0,4.51,1.15,8.07,3.41,10.58s6.31,4.56,12.12,6.16l5.35,1.44c5.16,1.43,8.65,3,10.35,4.8s2.54,4.3,2.54,7.64a10.62,10.62,0,0,1-3.64,8.5c-2.43,2.05-5.84,3.1-10.11,3.1-4.88,0-8.71-1.3-11.38-3.85s-4-6.19-4.09-10.84v-.36h-5.87v.78c0,6.37,1.86,11.35,5.54,14.79S397.79,429.65,404.56,429.65Z" transform="translate(-62.15 -51.45)"/><polygon class="cls-1" points="412.37 377.08 412.37 314.69 419.54 314.69 419.54 370.26 448.29 370.26 448.29 377.08 412.37 377.08"/><polygon class="cls-1" points="447.73 370.83 418.97 370.83 418.97 315.26 412.94 315.26 412.94 376.52 447.73 376.52 447.73 370.83"/><path class="cls-1" d="M536.7,430.22c-8.16,0-14.73-3-19.53-8.94S510,407.38,510,397.4s2.42-18,7.17-23.89,11.37-8.93,19.53-8.93,14.77,3,19.59,8.93,7.19,13.9,7.19,23.89-2.42,18-7.19,23.88S544.89,430.22,536.7,430.22Zm0-58.94a16.89,16.89,0,0,0-14.11,7c-3.57,4.7-5.38,11.15-5.38,19.15s1.79,14.46,5.32,19.1a18.12,18.12,0,0,0,28.43,0c3.55-4.63,5.35-11.07,5.35-19.12s-1.8-14.55-5.36-19.21A17,17,0,0,0,536.7,371.28Z" transform="translate(-62.15 -51.45)"/><path class="cls-1" d="M555.85,373.87c-4.7-5.79-11.14-8.73-19.15-8.73s-14.4,2.94-19.09,8.73-7,13.68-7,23.53,2.37,17.76,7,23.53,11.11,8.72,19.09,8.72,14.45-2.93,19.15-8.72,7.06-13.68,7.06-23.53S560.53,379.63,555.85,373.87Zm-4.44,43A17.64,17.64,0,0,1,536.7,424a17.45,17.45,0,0,1-14.62-7.11c-3.61-4.75-5.44-11.3-5.44-19.45s1.85-14.69,5.49-19.49a18.52,18.52,0,0,1,29.27-.06c3.63,4.76,5.48,11.34,5.48,19.55S555,412.13,551.41,416.86Z" transform="translate(-62.15 -51.45)"/><path class="cls-1" d="M593.64,430.22c-7.33,0-12.94-2.07-16.69-6.16s-5.61-10.14-5.61-18.07V366.14h7v39.07c0,6.45,1.22,11.16,3.62,14s6.29,4.19,11.67,4.19,9.31-1.41,11.7-4.2,3.66-7.53,3.66-14V366.14h7V406c0,7.9-1.89,14-5.63,18.05S601,430.22,593.64,430.22Z" transform="translate(-62.15 -51.45)"/><path class="cls-1" d="M593.64,429.65c7.18,0,12.67-2,16.32-6s5.49-9.92,5.49-17.67V366.71h-5.89v38.5c0,6.59-1.27,11.42-3.79,14.35s-6.59,4.4-12.13,4.4-9.62-1.48-12.1-4.4-3.76-7.76-3.76-14.35v-38.5H571.9V406c0,7.78,1.84,13.73,5.47,17.69S586.48,429.65,593.64,429.65Z" transform="translate(-62.15 -51.45)"/><polygon class="cls-1" points="601.31 377.08 571.06 327.51 571.06 377.08 564.13 377.08 564.13 314.69 571.27 314.69 601.63 364.28 601.63 314.69 608.5 314.69 608.5 377.08 601.31 377.08"/><polygon class="cls-1" points="602.2 366.29 571.06 315.43 570.95 315.26 564.69 315.26 564.69 376.52 570.5 376.52 570.5 325.49 601.63 376.52 607.93 376.52 607.93 315.26 602.2 315.26 602.2 366.29"/><path class="cls-1" d="M705.21,430.22c-8.09,0-14.56-3-19.22-9s-6.94-13.95-6.94-24,2.38-18,7.09-23.82,11.27-8.83,19.37-8.83c6.74,0,12.31,1.76,16.55,5.24s6.85,8.46,7.69,14.76l.15,1h-7.16l-.13-.76a15.83,15.83,0,0,0-5.63-10,17.77,17.77,0,0,0-11.39-3.62c-6.17,0-11,2.22-14.31,6.6s-5.1,10.94-5.1,19.27c0,8.07,1.72,14.52,5.13,19.18a16.1,16.1,0,0,0,13.67,6.9c5.88,0,10.52-1.87,13.78-5.57s4.83-8.72,4.94-15.23H705.12v-6.82h25.37v32.92h-6l-.41-8.24a20.84,20.84,0,0,1-6.53,6.52A22.82,22.82,0,0,1,705.21,430.22Z" transform="translate(-62.15 -51.45)"/><path class="cls-1" d="M705.69,401.87h18.58c0,6.92-1.73,12.36-5.09,16.17s-8.15,5.75-14.2,5.75a16.65,16.65,0,0,1-14.13-7.12c-3.48-4.77-5.24-11.33-5.24-19.52,0-8.46,1.76-15,5.22-19.61s8.41-6.83,14.76-6.83a18.23,18.23,0,0,1,11.74,3.75,16.36,16.36,0,0,1,5.84,10.3l.05.3h6l-.06-.41c-.82-6.15-3.34-11-7.49-14.39s-9.58-5.12-16.19-5.12c-7.92,0-14.29,2.91-18.93,8.63s-7,13.59-7,23.46,2.3,17.93,6.83,23.69,10.86,8.73,18.77,8.73a22.29,22.29,0,0,0,12.06-3.32,20.47,20.47,0,0,0,7.3-8l.48,9.62h4.87V396.17H705.69Z" transform="translate(-62.15 -51.45)"/><polygon class="cls-1" points="677.91 377.08 677.91 314.69 716.63 314.69 716.63 321.52 684.93 321.52 684.93 341.74 713.91 341.74 713.91 348.4 684.93 348.4 684.93 370.26 717.58 370.26 717.58 377.08 677.91 377.08"/><polygon class="cls-1" points="684.36 370.83 684.36 347.83 713.35 347.83 713.35 342.3 684.36 342.3 684.36 320.95 716.06 320.95 716.06 315.26 678.48 315.26 678.48 376.52 717.02 376.52 717.02 370.83 684.36 370.83"/><path class="cls-1" d="M485.53,119.48h0Z" transform="translate(-62.15 -51.45)"/><path class="cls-1" d="M485.5,260.3c-28.63,3.86-55.07,30.3-58.95,58.93v.12l.08.1.13.13.14,0c28.63-3.87,55.06-30.32,58.93-58.94l.05-.37Zm-55.13,55.45c5.15-24.4,27.23-46.48,51.63-51.64C476.85,288.52,454.77,310.59,430.37,315.75Z" transform="translate(-62.15 -51.45)"/><path class="cls-1" d="M474.8,269.29a68,68,0,0,0-39.26,39.25l-1.19,3.22,3.22-1.19a68,68,0,0,0,39.26-39.25L478,268.1ZM439.91,306.2a66.85,66.85,0,0,1,32.55-32.54A66.85,66.85,0,0,1,439.91,306.2Z" transform="translate(-62.15 -51.45)"/><path class="cls-1" d="M412.42,319.23c-3.87-28.63-30.32-55.07-58.95-58.93l-.36-.05.05.37c3.86,28.62,30.3,55.07,58.93,58.94h.17l.18-.22ZM357,264.11c24.41,5.16,46.48,27.24,51.64,51.64C384.21,310.59,362.13,288.52,357,264.11Z" transform="translate(-62.15 -51.45)"/><path class="cls-1" d="M403.43,308.54a68,68,0,0,0-39.25-39.25L361,268.1l1.19,3.22a68,68,0,0,0,39.25,39.25l3.22,1.19Zm-36.91-34.88a66.78,66.78,0,0,1,32.54,32.54A66.78,66.78,0,0,1,366.52,273.66Z" transform="translate(-62.15 -51.45)"/><path class="cls-1" d="M412.09,51.5c-28.62,3.86-55.07,30.3-58.94,58.93l0,.14.22.21.13,0c28.63-3.87,55.07-30.32,58.93-58.94l0-.37ZM357,107c5.16-24.4,27.23-46.48,51.64-51.63C403.44,79.72,381.36,101.79,357,107Z" transform="translate(-62.15 -51.45)"/><path class="cls-1" d="M401.39,60.49a68,68,0,0,0-39.25,39.25L361,103l3.22-1.19a68,68,0,0,0,39.25-39.25l1.19-3.22ZM366.51,97.4a66.78,66.78,0,0,1,32.54-32.54A66.78,66.78,0,0,1,366.51,97.4Z" transform="translate(-62.15 -51.45)"/><path class="cls-1" d="M485.83,110.43C482,81.8,455.51,55.36,426.88,51.5l-.37,0,.05.37c3.87,28.62,30.3,55.07,58.93,58.94h.16l.2-.19ZM430.38,55.32C454.78,60.47,476.86,82.55,482,107,457.61,101.79,435.54,79.72,430.38,55.32Z" transform="translate(-62.15 -51.45)"/><path class="cls-1" d="M476.84,99.74a68,68,0,0,0-39.25-39.25l-3.22-1.19,1.19,3.22a68,68,0,0,0,39.24,39.25L478,103ZM439.93,64.86A66.78,66.78,0,0,1,472.47,97.4,66.78,66.78,0,0,1,439.93,64.86Z" transform="translate(-62.15 -51.45)"/><path class="cls-1" d="M553.52,178.13c-3.87-28.63-30.31-55.06-58.94-58.93l-.37,0,.05.37c3.86,28.63,30.3,55.07,58.93,59h.16l.19-.2ZM498.08,123c24.4,5.16,46.47,27.23,51.63,51.63C525.31,169.5,503.23,147.42,498.08,123Z" transform="translate(-62.15 -51.45)"/><path class="cls-1" d="M544.54,167.45a68.07,68.07,0,0,0-39.26-39.26L502.06,127l1.19,3.22a68,68,0,0,0,39.25,39.25l3.22,1.19Zm-36.92-34.89a66.91,66.91,0,0,1,32.55,32.55A66.74,66.74,0,0,1,507.62,132.56Z" transform="translate(-62.15 -51.45)"/><path class="cls-1" d="M553.33,192.58l-.14,0c-28.63,3.88-55.07,30.32-58.93,59l-.05.37.37,0c28.63-3.87,55.07-30.3,58.95-58.93v-.16Zm-55.25,55.47c5.15-24.4,27.23-46.48,51.63-51.63C544.55,220.82,522.48,242.89,498.08,248.05Z" transform="translate(-62.15 -51.45)"/><path class="cls-1" d="M542.5,201.59a68,68,0,0,0-39.25,39.25l-1.19,3.22,3.22-1.18a68.07,68.07,0,0,0,39.26-39.26l1.18-3.22Zm-34.88,36.92A66.74,66.74,0,0,1,540.17,206,66.91,66.91,0,0,1,507.62,238.51Z" transform="translate(-62.15 -51.45)"/><path class="cls-1" d="M344.72,251.54c-3.87-28.63-30.31-55.07-58.94-58.93l-.37-.05,0,.37c3.86,28.63,30.3,55.07,58.93,58.94h.16l.19-.2Zm-55.44-55.11c24.4,5.15,46.48,27.23,51.63,51.63C316.51,242.91,294.43,220.83,289.28,196.43Z" transform="translate(-62.15 -51.45)"/><path class="cls-1" d="M335.74,240.85a68,68,0,0,0-39.26-39.25l-3.22-1.19,1.19,3.22a68,68,0,0,0,39.25,39.26l3.22,1.18ZM298.82,206a66.82,66.82,0,0,1,32.55,32.55A66.82,66.82,0,0,1,298.82,206Z" transform="translate(-62.15 -51.45)"/><path class="cls-1" d="M344.53,119.17l-.14,0c-28.63,3.88-55.07,30.32-58.93,58.95l0,.37.37,0c28.63-3.87,55.07-30.3,58.94-58.93v-.16Zm-55.25,55.47c5.15-24.4,27.23-46.48,51.63-51.63C335.76,147.41,313.68,169.49,289.28,174.64Z" transform="translate(-62.15 -51.45)"/><path class="cls-1" d="M333.7,128.18a68,68,0,0,0-39.25,39.25l-1.19,3.22,3.22-1.18a68,68,0,0,0,39.26-39.25l1.18-3.22ZM298.82,165.1a66.78,66.78,0,0,1,32.55-32.55A66.87,66.87,0,0,1,298.82,165.1Z" transform="translate(-62.15 -51.45)"/><path class="cls-1" d="M482.37,248.42c-30,.06-52.42-22.37-52.36-52.36,30-.06,52.42,22.37,52.36,52.36m3.15,3.17,0,0c2.49-34.92-23.78-61.2-58.71-58.68-2.51,34.92,23.76,61.2,58.68,58.7Z" transform="translate(-62.15 -51.45)"/><path class="cls-1" d="M437,203.08a46.56,46.56,0,0,1,38.32,38.32A46.58,46.58,0,0,1,437,203.08Z" transform="translate(-62.15 -51.45)"/><path class="cls-1" d="M409,175c-30,.06-52.42-22.37-52.37-52.36C386.59,122.59,409,145,409,175m3.14,3.18,0,0c2.5-34.92-23.78-61.19-58.71-58.68-2.51,34.93,23.76,61.21,58.68,58.71Z" transform="translate(-62.15 -51.45)"/><path class="cls-1" d="M363.63,129.68A46.54,46.54,0,0,1,401.94,168,46.55,46.55,0,0,1,363.63,129.68Z" transform="translate(-62.15 -51.45)"/><path class="cls-1" d="M430,175c-.06-30,22.37-52.42,52.36-52.36.06,30-22.37,52.42-52.36,52.36m-3.17,3.17h0Zm0,0c34.93,2.52,61.2-23.76,58.71-58.68l0,0c-34.92-2.5-61.19,23.78-58.68,58.7Z" transform="translate(-62.15 -51.45)"/><path class="cls-1" d="M437,168a46.58,46.58,0,0,1,38.32-38.32A46.56,46.56,0,0,1,437,168Z" transform="translate(-62.15 -51.45)"/><path class="cls-1" d="M356.6,248.41c-.05-30,22.37-52.42,52.37-52.36.06,30-22.38,52.42-52.37,52.36m-3.17,3.17h0Zm0,0c34.93,2.51,61.21-23.76,58.71-58.68l0,0c-34.92-2.5-61.19,23.78-58.68,58.71Z" transform="translate(-62.15 -51.45)"/><path class="cls-1" d="M363.63,241.38a46.55,46.55,0,0,1,38.31-38.31A46.54,46.54,0,0,1,363.63,241.38Z" transform="translate(-62.15 -51.45)"/><path class="cls-1" d="M419.48,174.74a10.79,10.79,0,0,1,7.63,18.42,11,11,0,0,1-15.25,0h0a10.79,10.79,0,0,1,7.62-18.42Zm0,19a8.19,8.19,0,1,0-5.79-2.4h0A8.12,8.12,0,0,0,419.48,193.72Z" transform="translate(-62.15 -51.45)"/><path class="cls-1" d="M417.85,183.9a2.31,2.31,0,1,1,0,3.26A2.31,2.31,0,0,1,417.85,183.9Z" transform="translate(-62.15 -51.45)"/></svg>