<?xml version="1.0" encoding="utf-8"?>
<!-- Generator: Adobe Illustrator 16.0.0, SVG Export Plug-In . SVG Version: 6.00 Build 0)  -->
<!DOCTYPE svg PUBLIC "-//W3C//DTD SVG 1.1//EN" "http://www.w3.org/Graphics/SVG/1.1/DTD/svg11.dtd">
<svg version="1.1" id="Layer_1" xmlns="http://www.w3.org/2000/svg" xmlns:xlink="http://www.w3.org/1999/xlink" x="0px" y="0px"
	 width="156px" height="74px" viewBox="0 0 156 74" enable-background="new 0 0 156 74" xml:space="preserve">
<path fill="#FFFFFF" d="M73.147,49.947c-3.178,0.232-5.28,1.515-9.191,1.826c-6.452,0.479-6.492-2.235-13.954-1.725
	c-4.916,0.334-10.156,3.258-10.156,3.258s4.728-1.77,8.567-1.533c3.652,0.201,5.514,2.146,9.94,2.348
	c5.138,0.23,6.422-1.576,11.16-2.348c5.019-0.805,10.844,6.389,21.055,0.086C81.197,54.076,79.898,49.453,73.147,49.947
	 M100.128,45.448c-3.175,0.235-5.282,1.516-9.19,1.825c-6.453,0.48-6.498-2.237-13.956-1.724
	c-4.914,0.335-10.152,3.257-10.152,3.257s4.726-1.764,8.563-1.531c3.647,0.203,5.517,2.146,9.94,2.351
	c5.135,0.229,6.42-1.578,11.161-2.351c5.025-0.803,10.852,6.389,21.063,0.088C108.186,49.577,106.889,44.955,100.128,45.448"/>
<path fill="#FFFFFF" d="M98.217,17.529l-8.527,7.415c0,0,11.054,3.472,10.106,8.847c-0.534,3.045-1.319,7.922-35.424,5.316
	c2.512-0.648,22.413-6.162,23.886-18.574C89.678,8.535,72.324,4.11,72.324,4.11L69.16,6.949v-3h-2.52v5.262l-3.475,3.12
	c0,0,1.421,0.27,3.475,0.846v23.146h2.52V13.955c5.7,1.922,13.248,5.634,12.152,11.627c-1.521,8.356-15.109,12.926-16.983,13.524
	c-2.604-0.203-5.404-0.443-8.416-0.737c-0.165-0.012-6.322,3.006-6.322,3.006c31.867,2.834,54.161-0.64,57.792-10.112
	C110.209,23.847,98.217,17.529,98.217,17.529 M75.377,10.681l1.735-2.1c0,0,14.259,4.916,7.199,17.467
	C84.309,26.048,89.887,14.545,75.377,10.681"/>
</svg>
